<svg xmlns="http://www.w3.org/2000/svg" style="display:none">
  <symbol id="i-menu" viewBox="0 0 24 24"><path d="M4 6h16M4 12h16M4 18h16"/></symbol>
  <symbol id="i-plus" viewBox="0 0 24 24"><path d="M12 5v14M5 12h14"/></symbol>
  <symbol id="i-x" viewBox="0 0 24 24"><path d="M6 6l12 12M18 6L6 18"/></symbol>
  <symbol id="i-chevron-down" viewBox="0 0 24 24"><path d="M6 9l6 6 6-6"/></symbol>
  <symbol id="i-chevron-right" viewBox="0 0 24 24"><path d="M9 6l6 6-6 6"/></symbol>
  <symbol id="i-arrow-left" viewBox="0 0 24 24"><path d="M19 12H5m7-7l-7 7 7 7"/></symbol>
  <symbol id="i-arrow-up" viewBox="0 0 24 24"><path d="M12 19V5m-7 7l7-7 7 7"/></symbol>
  <symbol id="i-edit" viewBox="0 0 24 24"><path d="M4 20h4l11-11a2.8 2.8 0 0 0-4-4L4 16v4zM13.5 6.5l4 4"/></symbol>
  <symbol id="i-trash" viewBox="0 0 24 24"><path d="M4 7h16M9 7V4h6v3m-8 0l1 13h8l1-13"/></symbol>
  <symbol id="i-search" viewBox="0 0 24 24"><circle cx="11" cy="11" r="7"/><path d="M20 20l-3.5-3.5"/></symbol>
  <symbol id="i-share" viewBox="0 0 24 24"><circle cx="6" cy="12" r="2.5"/><circle cx="18" cy="6" r="2.5"/><circle cx="18" cy="18" r="2.5"/><path d="M8.3 10.8l7.4-3.6M8.3 13.2l7.4 3.6"/></symbol>
  <symbol id="i-upload" viewBox="0 0 24 24"><path d="M12 16V4m0 0L7 9m5-5l5 5M4 20h16"/></symbol>
  <symbol id="i-file" viewBox="0 0 24 24"><path d="M6 3h8l4 4v14H6zM14 3v4h4"/></symbol>
  <symbol id="i-check" viewBox="0 0 24 24"><path d="M5 13l4 4L19 7"/></symbol>
  <symbol id="i-sparkle" viewBox="0 0 24 24"><path d="M12 3l1.8 5.2L19 10l-5.2 1.8L12 17l-1.8-5.2L5 10l5.2-1.8zM19 16l.9 2.6L22.5 19.5l-2.6.9L19 23l-.9-2.6-2.6-.9 2.6-.9z"/></symbol>
  <symbol id="i-clock" viewBox="0 0 24 24"><circle cx="12" cy="12" r="9"/><path d="M12 7v5l3 3"/></symbol>
  <symbol id="i-book" viewBox="0 0 24 24"><path d="M4 5a2 2 0 0 1 2-2h13v17H6a2 2 0 0 0-2 2zM4 5v15M9 6h7"/></symbol>
  <symbol id="i-chart" viewBox="0 0 24 24"><path d="M4 20V10m6 10V4m6 16v-7m4 7H2"/></symbol>
  <symbol id="i-trophy" viewBox="0 0 24 24"><path d="M8 4h8v5a4 4 0 0 1-8 0zM8 6H5a3 3 0 0 0 3 5M16 6h3a3 3 0 0 1-3 5M12 13v4m-4 3h8m-5-3v-3h2v3"/></symbol>
  <symbol id="i-user" viewBox="0 0 24 24"><circle cx="12" cy="8" r="4"/><path d="M4 21c0-4 3.6-6 8-6s8 2 8 6"/></symbol>
  <symbol id="i-users" viewBox="0 0 24 24"><circle cx="9" cy="8" r="3.5"/><path d="M3 20c0-3.3 2.7-5 6-5s6 1.7 6 5M16 5a3.5 3.5 0 0 1 0 7M17.5 15c2 .7 3.5 2.4 3.5 5"/></symbol>
  <symbol id="i-logout" viewBox="0 0 24 24"><path d="M9 4H5v16h4M14 8l4 4-4 4m4-4H9"/></symbol>
  <symbol id="i-settings" viewBox="0 0 24 24"><circle cx="12" cy="12" r="3"/><path d="M12 3v2m0 14v2M3 12h2m14 0h2M5.6 5.6l1.4 1.4m10 10l1.4 1.4M18.4 5.6L17 7m-10 10l-1.4 1.4"/></symbol>
  <symbol id="i-chat" viewBox="0 0 24 24"><path d="M4 6a2 2 0 0 1 2-2h12a2 2 0 0 1 2 2v9a2 2 0 0 1-2 2H9l-5 4z"/></symbol>
  <symbol id="i-sun" viewBox="0 0 24 24"><circle cx="12" cy="12" r="4"/><path d="M12 2v2m0 16v2M2 12h2m16 0h2M4.9 4.9l1.4 1.4m11.4 11.4l1.4 1.4M19.1 4.9l-1.4 1.4M6.3 17.7l-1.4 1.4"/></symbol>
  <symbol id="i-moon" viewBox="0 0 24 24"><path d="M20 14.5A8.5 8.5 0 0 1 9.5 4 8.5 8.5 0 1 0 20 14.5z"/></symbol>
  <symbol id="i-bell" viewBox="0 0 24 24"><path d="M6 9a6 6 0 0 1 12 0c0 5 2 6 2 6H4s2-1 2-6M10 20a2 2 0 0 0 4 0"/></symbol>
  <symbol id="i-image" viewBox="0 0 24 24"><rect x="3" y="5" width="18" height="14" rx="2"/><circle cx="9" cy="10" r="1.5"/><path d="M3 17l5-4 4 3 3-2 6 4"/></symbol>
  <symbol id="i-send" viewBox="0 0 24 24"><path d="M4 12l16-7-4 16-4.5-6zM12 12l8-7"/></symbol>
  <symbol id="i-folder" viewBox="0 0 24 24"><path d="M3 6a2 2 0 0 1 2-2h5l2 2h7a2 2 0 0 1 2 2v10a2 2 0 0 1-2 2H5a2 2 0 0 1-2-2z"/></symbol>
  <symbol id="i-download" viewBox="0 0 24 24"><path d="M12 4v12m0 0l-5-5m5 5l5-5M4 20h16"/></symbol>
  <symbol id="i-warning" viewBox="0 0 24 24"><path d="M12 4l10 17H2zM12 10v4m0 3v.5"/></symbol>
  <symbol id="i-info" viewBox="0 0 24 24"><circle cx="12" cy="12" r="9"/><path d="M12 11v5m0-8v.5"/></symbol>
  <symbol id="i-eye" viewBox="0 0 24 24"><path d="M2 12s3.5-6 10-6 10 6 10 6-3.5 6-10 6-10-6-10-6z"/><circle cx="12" cy="12" r="2.5"/></symbol>
</svg>
